# xmcd
#
# Track frame offsets: 
#        150
#        14316
#        29032
#        43470
#        55686
#        69430
#        85893
#        99914
#        117842
#        132013
#        155509
#        168110
#        186541
#        201803
#        215291
#        231824
#        246873
#        268592
#        281635
#        295753
#        310822
#
# Disc length: 4288 seconds
#
# Revision: 0
# Processed by: cddbd v1.5.2PL0 Copyright (c) Steve Scherf et al.
# Submitted via: ExactAudioCopy v0.95b4
#
DISCID=2d10be15
DTITLE=Various Artist - Siempre Te Amare Vol.3
DYEAR=2000
DGENRE=Ballad
TTITLE0=Nilton Cesar - Cerca de los ojos lejos del corazón
TTITLE1=Gigliola Cinquetti - Dios como te amo
TTITLE2=Raúl Abranzón - Una vieja canción de amor
TTITLE3=Frederic Francois - Quisiera junto a ti
TTITLE4=El Greco - Alza tu copa y brindemos por el Dios
TTITLE5=Morris Albert - Dime
TTITLE6=Gianfranco - No te me vayas entonces
TTITLE7=Estela Nuñez - Una lagrima
TTITLE8=Fedra y Maximiliano - Como somos
TTITLE9=Los Modulos - Todo tiene su fin
TTITLE10=Los Angeles Negros - Tanto adios
TTITLE11=Palito Ortega - Te quiero amor te quiero
TTITLE12=Zalo Reyes - Motivo y razón
TTITLE13=Danny - Te conquistaré
TTITLE14=Nelson Ned - Todo pasará
TTITLE15=Sergio Murillo - Seras todo para mi
TTITLE16=Salvatore Adamo - Inch' Allah
TTITLE17=Buddy Richard - Si me vas a abandonar
TTITLE18=Los Pulpos - Lo que te queda
TTITLE19=Los Brios - Yo se que te acordarás
TTITLE20=Los Cinco Latinos - Tu eres mi destino
EXTD=
EXTT0=
EXTT1=
EXTT2=
EXTT3=
EXTT4=
EXTT5=
EXTT6=
EXTT7=
EXTT8=
EXTT9=
EXTT10=
EXTT11=
EXTT12=
EXTT13=
EXTT14=
EXTT15=
EXTT16=
EXTT17=
EXTT18=
EXTT19=
EXTT20=
PLAYORDER=
